<svg width="187" height="58" viewBox="0 0 187 58" fill="none" xmlns="http://www.w3.org/2000/svg">
<mask id="mask0_51_4" style="mask-type:luminance" maskUnits="userSpaceOnUse" x="0" y="9" width="39" height="40">
<path d="M38.3783 9H0V49H38.3783V9Z" fill="white"/>
</mask>
<g mask="url(#mask0_51_4)">
<path d="M22.9838 29.0024C22.9812 27.014 23.5279 25.0636 24.5634 23.3662H14.623C13.5449 27.0463 13.5449 30.9584 14.623 34.6386H24.5634C23.5279 32.9411 22.9812 30.9907 22.9838 29.0024Z" fill="#009EA5"/>
<path d="M19.1892 18.1738C21.0467 18.1733 22.8731 18.6507 24.4928 19.56C26.1125 20.4693 27.4711 21.7799 28.4379 23.366H38.3783C37.1619 19.2191 34.6348 15.5778 31.1755 12.9874C27.7162 10.3971 23.5108 8.99707 19.1892 8.99707C14.8675 8.99707 10.6621 10.3971 7.20282 12.9874C3.74351 15.5778 1.21642 19.2191 0 23.366H9.94042C10.9073 21.7799 12.2658 20.4693 13.8856 19.56C15.5053 18.6507 17.3317 18.1733 19.1892 18.1738ZM19.1892 39.8305C17.3317 39.831 15.5053 39.3537 13.8856 38.4444C12.2658 37.5351 10.9073 36.2244 9.94042 34.6383H0C1.21642 38.7853 3.74351 42.4266 7.20282 45.0169C10.6621 47.6072 14.8675 49.0072 19.1892 49.0072C23.5108 49.0072 27.7162 47.6072 31.1755 45.0169C34.6348 42.4266 37.1619 38.7853 38.3783 34.6383H28.4379C27.4711 36.2244 26.1125 37.5351 24.4928 38.4444C22.8731 39.3537 21.0467 39.831 19.1892 39.8305Z" fill="#009EA5"/>
</g>
<path d="M50.2747 40.0001V18.1819H59.0105C60.6156 18.1819 61.9544 18.4198 63.0269 18.8957C64.0993 19.3715 64.9054 20.0321 65.4452 20.8772C65.985 21.7153 66.2548 22.6812 66.2548 23.775C66.2548 24.6272 66.0844 25.3765 65.7435 26.0228C65.4026 26.662 64.9338 27.1876 64.3372 27.5995C63.7477 28.0044 63.073 28.292 62.3131 28.4625V28.6755C63.144 28.711 63.9217 28.9454 64.6462 29.3787C65.3777 29.8119 65.9707 30.4191 66.4253 31.2004C66.8798 31.9745 67.1071 32.8978 67.1071 33.9703C67.1071 35.1279 66.8195 36.1613 66.2442 37.0704C65.676 37.9724 64.8344 38.6862 63.7193 39.2117C62.6043 39.7373 61.23 40.0001 59.5965 40.0001H50.2747ZM54.8877 36.2288H58.6483C59.9338 36.2288 60.8713 35.9838 61.4608 35.4937C62.0503 34.9965 62.345 34.336 62.345 33.5122C62.345 32.9085 62.1994 32.3758 61.9082 31.9142C61.6171 31.4525 61.2016 31.0903 60.6618 30.8275C60.1291 30.5647 59.4935 30.4333 58.7548 30.4333H54.8877V36.2288ZM54.8877 27.3119H58.3074C58.9395 27.3119 59.5006 27.2018 59.9906 26.9816C60.4878 26.7544 60.8784 26.4348 61.1625 26.0228C61.4537 25.6109 61.5993 25.1173 61.5993 24.542C61.5993 23.7537 61.3188 23.118 60.7577 22.635C60.2037 22.1521 59.4154 21.9106 58.3926 21.9106H54.8877V27.3119ZM68.5835 40.0001V23.6365H73.1218V40.0001H68.5835ZM70.8633 21.5271C70.1886 21.5271 69.6098 21.3034 69.1268 20.8559C68.651 20.4014 68.413 19.8581 68.413 19.226C68.413 18.601 68.651 18.0647 69.1268 17.6173C69.6098 17.1627 70.1886 16.9355 70.8633 16.9355C71.538 16.9355 72.1133 17.1627 72.5892 17.6173C73.0721 18.0647 73.3136 18.601 73.3136 19.226C73.3136 19.8581 73.0721 20.4014 72.5892 20.8559C72.1133 21.3034 71.538 21.5271 70.8633 21.5271ZM75.2321 40.0001V37.2941L83.2434 27.3758V27.2586H75.5091V23.6365H88.7086V26.5875L81.1873 36.2608V36.3779H88.9856V40.0001H75.2321ZM91.1012 18.1819H96.7901L102.799 32.841H103.054L109.063 18.1819H114.752V40.0001H110.277V25.7991H110.096L104.45 39.8936H101.403L95.7567 25.7458H95.5756V40.0001H91.1012V18.1819ZM121.693 40.309C120.649 40.309 119.719 40.1279 118.902 39.7657C118.085 39.3964 117.439 38.8531 116.963 38.1358C116.494 37.4113 116.26 36.5093 116.26 35.4298C116.26 34.5207 116.427 33.7572 116.761 33.1393C117.095 32.5214 117.549 32.0242 118.124 31.6478C118.7 31.2714 119.353 30.9873 120.085 30.7956C120.823 30.6038 121.597 30.4689 122.407 30.3907C123.359 30.2913 124.126 30.199 124.708 30.1137C125.291 30.0214 125.713 29.8865 125.976 29.7089C126.239 29.5313 126.37 29.2686 126.37 28.9206V28.8566C126.37 28.1819 126.157 27.6599 125.731 27.2906C125.312 26.9213 124.715 26.7366 123.941 26.7366C123.124 26.7366 122.475 26.9177 121.992 27.2799C121.509 27.635 121.189 28.0825 121.033 28.6223L116.835 28.2813C117.048 27.287 117.467 26.4277 118.092 25.7032C118.717 24.9717 119.524 24.4106 120.511 24.02C121.505 23.6223 122.656 23.4234 123.963 23.4234C124.872 23.4234 125.742 23.5299 126.573 23.743C127.411 23.9561 128.153 24.2863 128.799 24.7338C129.453 25.1812 129.967 25.7565 130.344 26.4596C130.72 27.1556 130.909 27.9902 130.909 28.9632V40.0001H126.605V37.7309H126.477C126.214 38.2423 125.862 38.6933 125.422 39.0839C124.982 39.4674 124.453 39.7693 123.835 39.9894C123.217 40.2025 122.503 40.309 121.693 40.309ZM122.993 37.1769C123.661 37.1769 124.25 37.0456 124.762 36.7828C125.273 36.5129 125.674 36.1507 125.965 35.6961C126.257 35.2416 126.402 34.7267 126.402 34.1514V32.4149C126.26 32.5072 126.065 32.5924 125.816 32.6706C125.575 32.7416 125.301 32.809 124.996 32.873C124.691 32.9298 124.385 32.9831 124.08 33.0328C123.774 33.0754 123.497 33.1144 123.249 33.15C122.716 33.2281 122.251 33.3524 121.853 33.5228C121.455 33.6933 121.146 33.9241 120.926 34.2153C120.706 34.4994 120.596 34.8545 120.596 35.2806C120.596 35.8985 120.82 36.3708 121.267 36.6975C121.722 37.0171 122.297 37.1769 122.993 37.1769ZM146.605 28.3027L142.45 28.5583C142.379 28.2032 142.226 27.8836 141.992 27.5995C141.757 27.3083 141.448 27.0775 141.065 26.9071C140.688 26.7295 140.237 26.6407 139.712 26.6407C139.009 26.6407 138.416 26.7899 137.933 27.0882C137.45 27.3794 137.208 27.77 137.208 28.26C137.208 28.6507 137.365 28.9809 137.677 29.2508C137.99 29.5207 138.526 29.7373 139.286 29.9007L142.247 30.4973C143.838 30.824 145.024 31.3495 145.806 32.074C146.587 32.7984 146.977 33.7501 146.977 34.9291C146.977 36.0015 146.661 36.9426 146.029 37.7522C145.404 38.5619 144.545 39.194 143.451 39.6485C142.365 40.096 141.111 40.3197 139.69 40.3197C137.524 40.3197 135.798 39.8687 134.513 38.9667C133.235 38.0576 132.485 36.8218 132.265 35.2593L136.729 35.025C136.864 35.6855 137.19 36.1897 137.709 36.5377C138.227 36.8787 138.891 37.0491 139.701 37.0491C140.497 37.0491 141.136 36.8964 141.619 36.591C142.109 36.2785 142.357 35.8772 142.365 35.3872C142.357 34.9752 142.183 34.6379 141.842 34.3751C141.502 34.1052 140.976 33.8992 140.266 33.7572L137.432 33.1926C135.834 32.873 134.644 32.319 133.863 31.5306C133.089 30.7423 132.702 29.7373 132.702 28.5157C132.702 27.4646 132.986 26.559 133.554 25.7991C134.129 25.0392 134.936 24.4532 135.972 24.0413C137.016 23.6294 138.238 23.4234 139.637 23.4234C141.704 23.4234 143.33 23.8602 144.516 24.7338C145.71 25.6073 146.406 26.797 146.605 28.3027ZM157.099 23.6365V27.0456H147.245V23.6365H157.099ZM149.482 19.716H154.02V34.9717C154.02 35.3907 154.084 35.7174 154.212 35.9518C154.34 36.1791 154.517 36.3389 154.745 36.4312C154.979 36.5235 155.249 36.5697 155.554 36.5697C155.767 36.5697 155.98 36.5519 156.193 36.5164C156.407 36.4738 156.57 36.4419 156.684 36.4206L157.397 39.7977C157.17 39.8687 156.85 39.9504 156.439 40.0427C156.027 40.1421 155.526 40.2025 154.936 40.2238C153.843 40.2664 152.884 40.1208 152.06 39.787C151.243 39.4532 150.608 38.9348 150.153 38.2316C149.698 37.5285 149.475 36.6407 149.482 35.5683V19.716ZM165.897 40.3197C164.214 40.3197 162.765 39.9788 161.55 39.297C160.343 38.6081 159.413 37.635 158.759 36.3779C158.106 35.1137 157.779 33.6187 157.779 31.8929C157.779 30.2096 158.106 28.7323 158.759 27.461C159.413 26.1897 160.332 25.199 161.518 24.4887C162.712 23.7785 164.111 23.4234 165.716 23.4234C166.795 23.4234 167.8 23.5974 168.731 23.9454C169.668 24.2863 170.485 24.8012 171.181 25.4902C171.884 26.1791 172.431 27.0456 172.822 28.0896C173.212 29.1265 173.408 30.341 173.408 31.7331V32.9795H159.59V30.167H169.136C169.136 29.5136 168.994 28.9348 168.709 28.4305C168.425 27.9262 168.031 27.5321 167.527 27.248C167.03 26.9568 166.451 26.8112 165.79 26.8112C165.102 26.8112 164.491 26.971 163.958 27.2906C163.432 27.6031 163.021 28.0257 162.722 28.5583C162.424 29.0839 162.271 29.6698 162.264 30.3162V32.9902C162.264 33.7998 162.413 34.4994 162.712 35.0889C163.017 35.6784 163.447 36.1329 164.001 36.4525C164.555 36.7721 165.212 36.9319 165.972 36.9319C166.476 36.9319 166.937 36.8609 167.356 36.7189C167.776 36.5768 168.134 36.3637 168.432 36.0796C168.731 35.7956 168.958 35.4475 169.114 35.0356L173.312 35.3126C173.099 36.3211 172.662 37.2018 172.001 37.9546C171.348 38.7004 170.503 39.2828 169.466 39.7018C168.436 40.1137 167.246 40.3197 165.897 40.3197ZM174.929 40.0001V23.6365H179.329V26.4916H179.5C179.798 25.476 180.299 24.7089 181.002 24.1904C181.705 23.6649 182.514 23.4021 183.431 23.4021C183.658 23.4021 183.903 23.4163 184.166 23.4447C184.429 23.4731 184.659 23.5122 184.858 23.5619V27.5889C184.645 27.525 184.35 27.4681 183.974 27.4184C183.598 27.3687 183.253 27.3439 182.941 27.3439C182.273 27.3439 181.676 27.4894 181.151 27.7806C180.632 28.0647 180.22 28.4625 179.915 28.9738C179.617 29.4852 179.468 30.0747 179.468 30.7423V40.0001H174.929Z" fill="white"/>
</svg>
